<svg width="30" height="30" viewBox="0 0 30 30" fill="none" xmlns="http://www.w3.org/2000/svg">
<g clip-path="url(#clip0_1_140)">
<path d="M15 1.875C12.5136 1.875 10.129 2.86272 8.37087 4.62087C6.61272 6.37903 5.625 8.7636 5.625 11.25V13.125H7.5C7.99728 13.125 8.47419 13.3225 8.82582 13.6742C9.17746 14.0258 9.375 14.5027 9.375 15V20.625C9.375 21.1223 9.17746 21.5992 8.82582 21.9508C8.47419 22.3025 7.99728 22.5 7.5 22.5H5.625C5.12772 22.5 4.65081 22.3025 4.29917 21.9508C3.94754 21.5992 3.75 21.1223 3.75 20.625V11.25C3.75 9.77263 4.04099 8.30972 4.60636 6.94481C5.17172 5.5799 6.00039 4.33971 7.04505 3.29505C8.08971 2.25039 9.3299 1.42172 10.6948 0.856355C12.0597 0.29099 13.5226 0 15 0C16.4774 0 17.9403 0.29099 19.3052 0.856355C20.6701 1.42172 21.9103 2.25039 22.955 3.29505C23.9996 4.33971 24.8283 5.5799 25.3936 6.94481C25.959 8.30972 26.25 9.77263 26.25 11.25V22.5C26.25 23.7432 25.7561 24.9355 24.8771 25.8146C23.998 26.6936 22.8057 27.1875 21.5625 27.1875H17.5613C17.3967 27.4725 17.16 27.7092 16.875 27.8738C16.5899 28.0384 16.2666 28.125 15.9375 28.125H14.0625C13.5652 28.125 13.0883 27.9275 12.7367 27.5758C12.385 27.2242 12.1875 26.7473 12.1875 26.25C12.1875 25.7527 12.385 25.2758 12.7367 24.9242C13.0883 24.5725 13.5652 24.375 14.0625 24.375H15.9375C16.2666 24.375 16.5899 24.4616 16.875 24.6262C17.16 24.7908 17.3967 25.0275 17.5613 25.3125H21.5625C22.3084 25.3125 23.0238 25.0162 23.5512 24.4887C24.0787 23.9613 24.375 23.2459 24.375 22.5H22.5C22.0027 22.5 21.5258 22.3025 21.1742 21.9508C20.8225 21.5992 20.625 21.1223 20.625 20.625V15C20.625 14.5027 20.8225 14.0258 21.1742 13.6742C21.5258 13.3225 22.0027 13.125 22.5 13.125H24.375V11.25C24.375 10.0189 24.1325 8.79977 23.6614 7.66234C23.1902 6.52492 22.4997 5.49142 21.6291 4.62087C20.7586 3.75032 19.7251 3.05977 18.5877 2.58863C17.4502 2.11749 16.2311 1.875 15 1.875Z" fill="white"/>
</g>
<defs>
<clipPath id="clip0_1_140">
<rect width="30" height="30" fill="white"/>
</clipPath>
</defs>
</svg>
