<svg width="20" height="20" viewBox="0 0 20 20" fill="none" xmlns="http://www.w3.org/2000/svg">
<g clip-path="url(#clip0_1_136)">
<path fill-rule="evenodd" clip-rule="evenodd" d="M2.35638 0.638445C2.5751 0.420056 2.83773 0.250643 3.12688 0.141433C3.41602 0.0322224 3.72507 -0.0142913 4.03356 0.00497394C4.34204 0.0242392 4.6429 0.108844 4.91621 0.25318C5.18952 0.397517 5.42903 0.598291 5.61888 0.842195L7.86263 3.7247C8.27388 4.25345 8.41888 4.9422 8.25638 5.5922L7.57263 8.3297C7.53753 8.47149 7.53956 8.61995 7.57853 8.76073C7.61751 8.90152 7.6921 9.02988 7.79513 9.13345L10.8664 12.2047C10.9701 12.3079 11.0986 12.3827 11.2397 12.4216C11.3807 12.4606 11.5294 12.4625 11.6714 12.4272L14.4076 11.7434C14.7284 11.6637 15.0631 11.6577 15.3866 11.7259C15.71 11.7941 16.0138 11.9347 16.2751 12.1372L19.1576 14.3797C20.1939 15.1859 20.2889 16.7172 19.3614 17.6434L18.0689 18.9359C17.1439 19.8609 15.7614 20.2672 14.4726 19.8134C11.1735 18.6542 8.1783 16.7656 5.71013 14.2884C3.2331 11.8206 1.34457 8.82591 0.185131 5.52719C-0.267369 4.2397 0.138881 2.85595 1.06388 1.93095L2.35638 0.638445Z" fill="#E10317"/>
</g>
<defs>
<clipPath id="clip0_1_136">
<rect width="20" height="20" fill="white"/>
</clipPath>
</defs>
</svg>
